# xmcd
#
# Track frame offsets:
#	150
#	14853
#	31048
#	45446
#	63634
#	79176
#	96659
#	112053
#	125657
#	142075
#	159621
#
# Disc length: 2304 seconds
#
# Revision: 0
# Processed by: cddbd v1.5.2PL0 Copyright (c) Steve Scherf et al.
# Submitted via: EasyCDDAExtractor 2010.6.0.0
#
DISCID=a108fe0b
DTITLE=Clarence Milton Bekker - Old Soul
DYEAR=2012
DGENRE=Soul
TTITLE0=Any Other Way
TTITLE1=Yes We Can Can
TTITLE2=One More Heartache
TTITLE3=I Wish Someone Would Care
TTITLE4=Who Is He (And What Is He To You)
TTITLE5=Try A Little Tenderness
TTITLE6=Everyone Loves A Winner
TTITLE7=Tomorrow's Dream
TTITLE8=Can't Help But Love You
TTITLE9=Shine On Me
TTITLE10=Hold On, I'm Coming
EXTD=
EXTT0=
EXTT1=
EXTT2=
EXTT3=
EXTT4=
EXTT5=
EXTT6=
EXTT7=
EXTT8=
EXTT9=
EXTT10=
PLAYORDER=
